<svg width="287" height="55" viewBox="0 0 287 55" fill="none" xmlns="http://www.w3.org/2000/svg">
<g id="JAYEOLA" filter="url(#filter0_d_1_13)">
<path id="Vector" d="M14.0771 36.8327L14.0846 36.842L14.0923 36.8512C15.2156 38.1885 16.802 38.808 18.698 38.808C20.5456 38.808 22.0939 38.2133 23.1782 36.9122C24.226 35.6549 24.69 33.9931 24.69 32.048V1.688H31.714V32.048C31.714 36.1971 30.5213 39.3021 28.2464 41.5017C25.9538 43.676 22.8507 44.808 18.826 44.808C14.7666 44.808 11.5714 43.6378 9.14409 41.3685C6.97643 39.3059 5.75955 36.4619 5.57786 32.728H12.5718C12.7314 34.3565 13.2097 35.7485 14.0771 36.8327Z" stroke="#FAFF06" stroke-width="2"/>
<path id="Vector_2" d="M68.8031 36.5851L68.5703 35.912H67.858H50.066H49.3537L49.1209 36.5851L46.4097 44.424H39.1356L54.4814 1.688H63.5066L78.8524 44.424H71.5143L68.8031 36.5851ZM65.426 30.744H66.83L66.3711 29.4171L59.9071 10.7291L58.962 7.99686L58.0169 10.7291L51.5529 29.4171L51.094 30.744H52.498H65.426Z" stroke="#FAFF06" stroke-width="2"/>
<path id="Vector_3" d="M122.861 1.688L108.514 29.3476L108.402 29.5641V29.808V44.36H101.442V29.808V29.5632L101.329 29.346L86.9224 1.688H94.7512L104.081 21.5295L104.989 23.4605L105.892 21.5272L115.159 1.688H122.861Z" stroke="#FAFF06" stroke-width="2"/>
<path id="Vector_4" d="M138.466 6.984H137.466V7.984V19.184V20.184H138.466H152.506V25.288H138.466H137.466V26.288V38.128V39.128H138.466H154.426V44.424H130.506V1.688H154.426V6.984H138.466Z" stroke="#FAFF06" stroke-width="2"/>
<path id="Vector_5" d="M164.358 12.3338L164.358 12.3338L164.361 12.3292C166.32 8.98216 168.965 6.37891 172.307 4.50414C175.65 2.62892 179.32 1.688 183.338 1.688C187.4 1.688 191.068 2.62978 194.364 4.50157L194.369 4.50414C197.709 6.37787 200.33 8.9786 202.246 12.3213L202.25 12.3276L202.254 12.3338C204.203 15.6227 205.186 19.3479 205.186 23.536C205.186 27.7685 204.202 31.5382 202.251 34.8708L202.249 34.8741C200.334 38.1747 197.712 40.7564 194.369 42.6319C191.026 44.5071 187.356 45.448 183.338 45.448C179.32 45.448 175.65 44.5071 172.307 42.6319C168.963 40.7558 166.318 38.1723 164.36 34.8685C162.41 31.5364 161.426 27.7675 161.426 23.536C161.426 19.3479 162.409 15.6227 164.358 12.3338ZM190.946 37.5198L190.953 37.5159L190.959 37.5119C193.177 36.1722 194.902 34.279 196.133 31.8619C197.368 29.4371 197.97 26.6526 197.97 23.536C197.97 20.4215 197.369 17.6562 196.131 15.2707C194.899 12.8527 193.17 10.9778 190.946 9.68022C188.725 8.38493 186.179 7.752 183.338 7.752C180.497 7.752 177.933 8.38504 175.674 9.67576L175.674 9.67572L175.666 9.68022C173.442 10.9778 171.713 12.8526 170.481 15.2707C169.243 17.6561 168.642 20.4215 168.642 23.536C168.642 26.6526 169.244 29.4371 170.479 31.8619C171.71 34.279 173.435 36.1722 175.653 37.5119L175.663 37.5182L175.674 37.5242C177.933 38.815 180.497 39.448 183.338 39.448C186.179 39.448 188.725 38.8151 190.946 37.5198Z" stroke="#FAFF06" stroke-width="2"/>
<path id="Vector_6" d="M219.146 38.256V39.256H220.146H233.866V44.36H212.186V1.688H219.146V38.256Z" stroke="#FAFF06" stroke-width="2"/>
<path id="Vector_7" d="M270.955 36.5851L270.722 35.912H270.01H252.218H251.506L251.273 36.5851L248.562 44.424H241.288L256.633 1.688H265.659L281.004 44.424H273.666L270.955 36.5851ZM267.578 30.744H268.982L268.523 29.4171L262.059 10.7291L261.114 7.99686L260.169 10.7291L253.705 29.4171L253.246 30.744H254.65H267.578Z" stroke="#FAFF06" stroke-width="2"/>
</g>
<defs>
<filter id="filter0_d_1_13" x="0.554001" y="0.688004" width="285.872" height="53.76" filterUnits="userSpaceOnUse" color-interpolation-filters="sRGB">
<feFlood flood-opacity="0" result="BackgroundImageFix"/>
<feColorMatrix in="SourceAlpha" type="matrix" values="0 0 0 0 0 0 0 0 0 0 0 0 0 0 0 0 0 0 127 0" result="hardAlpha"/>
<feOffset dy="4"/>
<feGaussianBlur stdDeviation="2"/>
<feComposite in2="hardAlpha" operator="out"/>
<feColorMatrix type="matrix" values="0 0 0 0 0 0 0 0 0 0 0 0 0 0 0 0 0 0 0.25 0"/>
<feBlend mode="normal" in2="BackgroundImageFix" result="effect1_dropShadow_1_13"/>
<feBlend mode="normal" in="SourceGraphic" in2="effect1_dropShadow_1_13" result="shape"/>
</filter>
</defs>
</svg>
